<svg xmlns="http://www.w3.org/2000/svg" viewBox="0 0 60 60"><defs><style>.a2e98d23-6b9f-472a-b67b-192f55c17d8c{opacity:0.5;}.a63f0020-c558-4822-9acd-8fe67cc1d28e{font-size:10px;font-family:NotoSansKR-Bold-KSCpc-EUC-H, Noto Sans KR;}.a63f0020-c558-4822-9acd-8fe67cc1d28e,.a9f19fc3-244d-4ecd-ad5d-327168be5e10{fill:#fff;}</style></defs><g id="f48c89be-7573-4921-9567-09f06084681b" data-name="레이어 5"><text class="a63f0020-c558-4822-9acd-8fe67cc1d28e" transform="translate(16.05 49.66)">대결형</text><path class="a9f19fc3-244d-4ecd-ad5d-327168be5e10" d="M12.52,12.94h2.87L18.9,24.69c.77,2.54,1.27,4.61,2.1,7.15h.11c.8-2.54,1.33-4.61,2.1-7.15L26.7,12.94h2.77L22.59,34.62H19.43Z"/><path class="a9f19fc3-244d-4ecd-ad5d-327168be5e10" d="M30.53,31.78l1.66-1.86a8.39,8.39,0,0,0,6,2.69c2.84,0,4.55-1.42,4.55-3.55s-1.56-2.92-3.6-3.84L36,23.87c-2-.86-4.4-2.4-4.4-5.56,0-3.33,2.89-5.75,6.82-5.75a8.9,8.9,0,0,1,6.38,2.68L43.32,17a7,7,0,0,0-4.93-2c-2.45,0-4,1.24-4,3.19s1.89,2.89,3.58,3.6L41,23.07c2.51,1.09,4.46,2.57,4.46,5.79,0,3.42-2.84,6.14-7.36,6.14A10.34,10.34,0,0,1,30.53,31.78Z"/></g></svg>