<svg xmlns="http://www.w3.org/2000/svg" viewBox="0 0 75 60"><defs><style>.aa3e78ed-fc77-4e0f-be42-25bfca50fd2e{opacity:0.5;}.b0a4bb58-8a38-4626-b7e0-2f4f5196c21f{fill:#00e3ae;}.eb7df67d-054d-482d-8c78-3b9152c38921{fill:#fff;stroke:#000;stroke-miterlimit:10;}</style></defs><g id="bb10c616-eb80-4267-8756-90f64de94f2f" data-name="레이어 5"><rect class="b0a4bb58-8a38-4626-b7e0-2f4f5196c21f" x="5" y="4" width="66" height="9"/><path class="b0a4bb58-8a38-4626-b7e0-2f4f5196c21f" d="M70,16v7H6V16H70m1-1H5v9H71V15Z"/><rect class="b0a4bb58-8a38-4626-b7e0-2f4f5196c21f" x="5" y="26" width="66" height="9"/><path class="b0a4bb58-8a38-4626-b7e0-2f4f5196c21f" d="M70,38v7H6V38H70m1-1H5v9H71V37Z"/><path class="b0a4bb58-8a38-4626-b7e0-2f4f5196c21f" d="M70,49v7H6V49H70m1-1H5v9H71V48Z"/><path class="eb7df67d-054d-482d-8c78-3b9152c38921" d="M50.61,40.48c-.12-.47-1.3-11.32-1.3-11.32l11.3,1.53L57,34.19l7.69,7.86-2.86,2.79L54.18,37Z"/></g></svg>